<?xml version="1.0" encoding="UTF-8" standalone="no"?>
<!DOCTYPE svg PUBLIC "-//W3C//DTD SVG 1.1//EN" "http://www.w3.org/Graphics/SVG/1.1/DTD/svg11.dtd">
<svg width="100%" height="100%" viewBox="0 0 231 33" version="1.1" xmlns="http://www.w3.org/2000/svg" xmlns:xlink="http://www.w3.org/1999/xlink" xml:space="preserve" xmlns:serif="http://www.serif.com/" style="fill-rule:evenodd;clip-rule:evenodd;stroke-linejoin:round;stroke-miterlimit:2;">
    <g transform="matrix(0.383135,0,0,0.383135,-314.983,-790.39)">
        <g transform="matrix(75,0,0,75,924,2126.5)">
            <path d="M0.034,-0.623L0.225,-0.623L0.225,0L0.316,0L0.316,-0.623L0.506,-0.623L0.506,-0.697L0.034,-0.697L0.034,-0.623Z" style="fill:white;fill-rule:nonzero;"/>
        </g>
        <g transform="matrix(75,0,0,75,964.575,2126.5)">
            <path d="M0.168,-0.298C0.168,-0.425 0.234,-0.464 0.321,-0.464L0.345,-0.464L0.345,-0.558C0.258,-0.558 0.199,-0.52 0.168,-0.459L0.168,-0.548L0.077,-0.548L0.077,0L0.168,0L0.168,-0.298Z" style="fill:white;fill-rule:nonzero;"/>
        </g>
        <g transform="matrix(75,0,0,75,992.55,2126.5)">
            <path d="M0.043,-0.276C0.043,-0.106 0.156,0.009 0.302,0.009C0.403,0.009 0.474,-0.043 0.507,-0.102L0.507,0L0.599,0L0.599,-0.548L0.507,-0.548L0.507,-0.448C0.475,-0.505 0.405,-0.557 0.303,-0.557C0.156,-0.557 0.043,-0.447 0.043,-0.276ZM0.507,-0.275C0.507,-0.146 0.421,-0.071 0.321,-0.071C0.221,-0.071 0.136,-0.147 0.136,-0.276C0.136,-0.405 0.221,-0.478 0.321,-0.478C0.421,-0.478 0.507,-0.402 0.507,-0.275Z" style="fill:white;fill-rule:nonzero;"/>
        </g>
        <g transform="matrix(75,0,0,75,1043.25,2126.5)">
            <path d="M0.012,-0.548L0.227,0L0.333,0L0.548,-0.548L0.451,-0.548L0.281,-0.084L0.11,-0.548L0.012,-0.548Z" style="fill:white;fill-rule:nonzero;"/>
        </g>
        <g transform="matrix(75,0,0,75,1085.33,2126.5)">
            <path d="M0.31,-0.48C0.404,-0.48 0.484,-0.421 0.483,-0.314L0.137,-0.314C0.147,-0.421 0.221,-0.48 0.31,-0.48ZM0.566,-0.169L0.468,-0.169C0.448,-0.11 0.396,-0.068 0.314,-0.068C0.221,-0.068 0.143,-0.129 0.136,-0.24L0.574,-0.24C0.576,-0.259 0.577,-0.275 0.577,-0.295C0.577,-0.445 0.473,-0.557 0.314,-0.557C0.154,-0.557 0.043,-0.448 0.043,-0.275C0.043,-0.101 0.158,0.009 0.314,0.009C0.45,0.009 0.538,-0.069 0.566,-0.169Z" style="fill:white;fill-rule:nonzero;"/>
        </g>
        <g transform="matrix(75,0,0,75,1131.83,2126.5)">
            <rect x="0.077" y="-0.74" width="0.091" height="0.74" style="fill:white;fill-rule:nonzero;"/>
        </g>
        <g transform="matrix(75,0,0,75,1150.28,2126.5)">
            <path d="M0.458,-0.206C0.458,-0.147 0.418,-0.114 0.35,-0.114L0.209,-0.114L0.209,-0.302L0.347,-0.302C0.415,-0.302 0.458,-0.266 0.458,-0.206ZM0.441,-0.497C0.441,-0.44 0.403,-0.41 0.337,-0.41L0.209,-0.41L0.209,-0.585L0.337,-0.585C0.403,-0.585 0.441,-0.553 0.441,-0.497ZM0.6,-0.189C0.6,-0.271 0.544,-0.344 0.465,-0.358C0.533,-0.38 0.584,-0.433 0.584,-0.518C0.584,-0.622 0.503,-0.698 0.357,-0.698L0.069,-0.698L0.069,0L0.37,0C0.515,0 0.6,-0.078 0.6,-0.189Z" style="fill:white;fill-rule:nonzero;"/>
        </g>
        <g transform="matrix(75,0,0,75,1198.5,2126.5)">
            <path d="M0.592,-0.554L0.451,-0.554L0.451,-0.249C0.451,-0.16 0.403,-0.112 0.327,-0.112C0.253,-0.112 0.204,-0.16 0.204,-0.249L0.204,-0.554L0.064,-0.554L0.064,-0.229C0.064,-0.077 0.157,0.007 0.286,0.007C0.355,0.007 0.416,-0.023 0.451,-0.07L0.451,0L0.592,0L0.592,-0.554Z" style="fill:white;fill-rule:nonzero;"/>
        </g>
        <g transform="matrix(75,0,0,75,1248.08,2126.5)">
            <path d="M0.033,-0.279C0.033,-0.106 0.145,0.009 0.286,0.009C0.373,0.009 0.435,-0.031 0.468,-0.082L0.468,0L0.61,0L0.61,-0.74L0.468,-0.74L0.468,-0.477C0.43,-0.529 0.36,-0.563 0.287,-0.563C0.145,-0.563 0.033,-0.452 0.033,-0.279ZM0.469,-0.277C0.469,-0.172 0.399,-0.114 0.322,-0.114C0.247,-0.114 0.176,-0.174 0.176,-0.279C0.176,-0.384 0.247,-0.44 0.322,-0.44C0.399,-0.44 0.469,-0.382 0.469,-0.277Z" style="fill:white;fill-rule:nonzero;"/>
        </g>
        <g transform="matrix(75,0,0,75,1298.92,2126.5)">
            <path d="M0.033,-0.279C0.033,-0.106 0.145,0.009 0.286,0.009C0.373,0.009 0.436,-0.034 0.469,-0.082L0.469,0.004C0.469,0.107 0.409,0.151 0.332,0.151C0.262,0.151 0.21,0.118 0.196,0.068L0.057,0.068C0.071,0.195 0.18,0.273 0.336,0.273C0.518,0.273 0.61,0.154 0.61,0.004L0.61,-0.554L0.469,-0.554L0.469,-0.475C0.436,-0.523 0.373,-0.563 0.286,-0.563C0.145,-0.563 0.033,-0.452 0.033,-0.279ZM0.469,-0.277C0.469,-0.172 0.399,-0.114 0.322,-0.114C0.247,-0.114 0.176,-0.174 0.176,-0.279C0.176,-0.384 0.247,-0.44 0.322,-0.44C0.399,-0.44 0.469,-0.382 0.469,-0.277Z" style="fill:white;fill-rule:nonzero;"/>
        </g>
        <g transform="matrix(75,0,0,75,1349.77,2126.5)">
            <path d="M0.307,-0.448C0.379,-0.448 0.437,-0.402 0.439,-0.329L0.176,-0.329C0.187,-0.405 0.24,-0.448 0.307,-0.448ZM0.57,-0.174L0.419,-0.174C0.401,-0.137 0.368,-0.107 0.308,-0.107C0.238,-0.107 0.182,-0.153 0.175,-0.235L0.58,-0.235C0.583,-0.253 0.584,-0.271 0.584,-0.289C0.584,-0.454 0.471,-0.563 0.311,-0.563C0.147,-0.563 0.033,-0.452 0.033,-0.277C0.033,-0.103 0.15,0.009 0.311,0.009C0.448,0.009 0.54,-0.072 0.57,-0.174Z" style="fill:white;fill-rule:nonzero;"/>
        </g>
        <g transform="matrix(75,0,0,75,1396.05,2126.5)">
            <path d="M0.091,-0.172C0.091,-0.045 0.162,0 0.268,0L0.356,0L0.356,-0.118L0.291,-0.118C0.247,-0.118 0.232,-0.134 0.232,-0.171L0.232,-0.439L0.356,-0.439L0.356,-0.554L0.232,-0.554L0.232,-0.691L0.091,-0.691L0.091,-0.554L0.025,-0.554L0.025,-0.439L0.091,-0.439L0.091,-0.172Z" style="fill:white;fill-rule:nonzero;"/>
        </g>
    </g>
    <g transform="matrix(0.36119,0,0,0.36119,-115.961,-119.614)">
        <g transform="matrix(0.731176,0,0,0.731176,136.757,100.809)">
            <path d="M345.062,408.605L323.463,430.204C317.136,436.53 306.864,436.53 300.537,430.204L256.796,386.463C250.47,380.136 250.47,369.864 256.796,363.537L300.537,319.796C306.864,313.47 317.136,313.47 323.463,319.796L340.913,337.246L315.314,362.844C310.895,367.263 310.895,374.439 315.314,378.858L345.062,408.605Z" style="fill:white;"/>
        </g>
        <g transform="matrix(0.125173,0.125173,-0.125173,0.125173,401.133,300.743)">
            <path d="M330,262.385C330,249.478 319.522,239 306.615,239L217.385,239C204.478,239 194,249.478 194,262.385L194,351.615C194,364.522 204.478,375 217.385,375L306.615,375C319.522,375 330,364.522 330,351.615L330,262.385Z" style="fill:white;"/>
        </g>
    </g>
</svg>
